# xmcd
#
# Track frame offsets:
#  150
#  25367
#  41415
#  67167
#  89070
#  115110
#  138072
#  161255
#  183267
#  201755
#  225795
#
# Disc length: 3285 seconds
#
# Revision: 0
# Processed by: cddbd v1.5.1PL0 Copyright (c) Steve Scherf et al.
# Submitted via: Collectorz.com Music Collector 6.9
#
DISCID=870cd30b
DTITLE=paul metsa - Whistling Past The Graveyard
DYEAR=1998
DGENRE=
TTITLE0=St Louis County Fair
TTITLE1=Prettiest Girl In Town
TTITLE2=Jack Ruby
TTITLE3=Whistling Past The Graveyard
TTITLE4=Wall Of Power
TTITLE5=Slow Justice
TTITLE6=As Good As It Gets
TTITLE7=Second Avenue Sunset
TTITLE8=Floretta's Junkyard
TTITLE9=Judas Sang The Blues
TTITLE10=Another Man's Chains
EXTD=
EXTT0=
EXTT1=
EXTT2=
EXTT3=
EXTT4=
EXTT5=
EXTT6=
EXTT7=
EXTT8=
EXTT9=
EXTT10=
PLAYORDER=
